PathFileType	4	(X/Y/Z)	C:\Users\WrightLab\Desktop\Jo\P5V16.trc
DataRate	CameraRate	NumFrames	NumMarkers	Units	OrigDataRate	OrigDataStartFrame	OrigNumFrames
100.00	100.00	       16	19	mm	100.00	96	       767
Frame#	Time	Headset_Front			Headset_Back			Headset_Left			Headset_Right			Left_Shoulder			Right_Shoulder			Sternum			C7			Left Elbow			Right Elbow			Left Wrist			Right Wrist			Left ASIS			Right ASIS			S2			Left Knee			Right Knee			Left Ankle			Right Ankle			
		X1	Y1	Z1	X2	Y2	Z2	X3	Y3	Z3	X4	Y4	Z4	X5	Y5	Z5	X6	Y6	Z6	X7	Y7	Z7	X8	Y8	Z8	X9	Y9	Z9	X10	Y10	Z10	X11	Y11	Z11	X12	Y12	Z12	X13	Y13	Z13	X14	Y14	Z14	X15	Y15	Z15	X16	Y16	Z16	X17	Y17	Z17	X18	Y18	Z18	X19	Y19	Z19	

96	0.950	-236.30382	1603.66260	-992.79401																-125.58975	1317.95056	-1071.91760							-433.74133	1187.25256	-1189.97803	143.56317	1061.94141	-998.96735	-386.61737	1062.09387	-986.65588	5.30700	921.36328	-1062.95496	-265.44205	944.89661	-1059.94934				52.38748	482.01770	-1125.35242	-311.30588	478.53976	-1105.08484				-276.59094	76.23369	-1208.18579	
97	0.960	-236.19939	1603.42432	-992.64948																-125.58975	1317.95056	-1071.91760							-433.63232	1187.28015	-1189.97693	143.54590	1061.91614	-998.78534	-385.99103	1061.80212	-986.43341	5.37040	921.38281	-1062.93567	-265.60522	945.17133	-1059.87915				52.42024	482.04114	-1125.34448	-310.75256	478.21799	-1105.13928				-276.59549	76.24116	-1208.18738	
98	0.970	-236.01418	1603.24634	-992.29132																-125.58975	1317.95056	-1071.91760							-433.51630	1187.27930	-1189.95264	143.87317	1061.96313	-998.56531	-385.40573	1061.73560	-986.27661	5.55229	921.20709	-1062.88135	-265.45602	945.29370	-1059.86597				52.43256	482.03085	-1125.33582	-310.15155	478.06018	-1105.22192				-276.59070	76.23856	-1208.18640	
99	0.980	-235.82161	1602.98279	-991.69812																-125.55424	1317.86877	-1070.86292							-433.36035	1187.32458	-1189.82397	143.72121	1062.04834	-998.61945	-385.42532	1061.89795	-986.38617	5.81875	920.81598	-1063.36438	-264.32462	945.04669	-1059.64868				52.85386	482.17615	-1125.30225	-310.11957	478.19904	-1104.86108				-276.60681	76.24276	-1208.18896	
100	0.990	-235.64505	1602.76221	-991.47491																-125.48787	1317.94421	-1070.48840							-433.15295	1187.09216	-1189.69690	143.97360	1061.84790	-998.60974	-385.23297	1061.89417	-986.49298	5.83346	920.81555	-1063.35876	-264.30344	945.03424	-1059.63708				52.89301	482.18777	-1125.28796	-309.69577	478.08530	-1104.95593				-276.60593	76.24863	-1208.18970	
101	1.000	-235.49022	1602.51746	-991.39203																-125.48787	1317.94421	-1070.48840							-433.01941	1187.09448	-1189.68054	144.09671	1061.87341	-998.46301	-384.92108	1062.01990	-986.31268	5.88203	920.81763	-1063.34106	-263.77682	944.83734	-1059.54993				53.02155	482.08856	-1125.29199	-309.55038	478.29785	-1104.85791				-276.57874	76.23440	-1208.18433	
102	1.010	-235.30260	1602.32971	-991.07935																-125.48787	1317.94421	-1070.48840							-432.83865	1187.14343	-1189.49683	144.12527	1061.86743	-998.45441	-384.56003	1061.68396	-986.11182	6.24854	920.88611	-1063.44910	-263.76520	944.83051	-1059.54358				53.18649	482.35056	-1125.31616	-309.17007	478.86511	-1104.56177				-276.55292	76.22474	-1208.17981	
103	1.020	-235.10837	1602.22522	-991.06500																-125.48787	1317.94421	-1070.48840							-432.65942	1187.10132	-1189.21118	144.32646	1061.77173	-998.37244	-384.44907	1061.94141	-986.36829	6.73319	920.60822	-1063.64380	-263.74716	944.81982	-1059.53381				53.07729	482.10660	-1125.27209	-308.67828	478.70963	-1104.66321				-276.55392	76.21754	-1208.17896	
104	1.030	-234.90979	1602.13574	-991.04657																-124.80000	1317.85425	-1070.48157							-432.47305	1187.04272	-1189.17676	144.34917	1061.76575	-998.36536	-383.64545	1061.67786	-985.85773	7.11630	920.69287	-1063.62488	-263.54724	944.84583	-1059.85254				53.10484	482.27106	-1125.84766	-308.42343	479.06171	-1104.56921				-276.57983	76.23309	-1208.18433	
105	1.040	-234.67123	1602.02979	-990.74908																-124.80000	1317.85425	-1070.48157							-432.04828	1187.31067	-1189.41272	144.37146	1061.75757	-998.35809	-383.90781	1062.28137	-986.25568	7.12875	920.69226	-1063.62012	-263.73587	944.81317	-1059.52759				53.05239	482.28003	-1125.53601	-308.42343	479.06171	-1104.56921				-276.55188	76.22021	-1208.17908	
106	1.050	-234.46565	1601.83167	-990.41040																-124.80000	1317.85425	-1070.48157							-431.89398	1187.27856	-1189.38940	144.57117	1061.92419	-998.29175	-383.73337	1062.24500	-986.19409	7.15409	920.69727	-1063.61182	-263.39182	944.95728	-1059.40295				53.19594	482.38495	-1126.07422	-308.33664	479.10397	-1104.82336				-276.53778	76.21920	-1208.17725	
107	1.060	-234.31552	1601.72681	-990.40442																-124.80000	1317.85425	-1070.48157							-431.48419	1187.26990	-1189.46228	144.63066	1061.90967	-998.27350	-382.69980	1061.40613	-985.91895	7.17547	920.69708	-1063.60376	-263.29291	945.07306	-1059.47034				53.19233	482.38397	-1126.07556	-308.33664	479.10397	-1104.82336				-276.52710	76.21507	-1208.17529	
108	1.070	-234.09970	1601.56946	-990.04828																-123.90453	1317.51062	-1070.41614							-431.33563	1187.22314	-1189.40845	144.59343	1061.59119	-998.15826	-382.41672	1061.15442	-985.72174	7.40557	920.66412	-1063.98718	-263.58878	944.92950	-1059.08252				53.21869	482.24149	-1126.20325	-308.33664	479.10397	-1104.82336				-276.54498	76.22644	-1208.17920	
109	1.080	-233.88622	1601.55505	-989.78680																-123.77574	1317.74377	-1070.29700							-431.15616	1187.22388	-1189.35632	144.66008	1061.58582	-998.13965	-382.30734	1061.15271	-985.67169	7.71753	920.87866	-1063.94238	-263.20987	944.94666	-1058.51318				53.21755	481.92966	-1126.76062	-308.33664	479.10397	-1104.82336				-276.09775	76.37345	-1208.40564	
110	1.090	-233.73038	1601.17017	-989.25702																-123.77574	1317.74377	-1070.29700							-430.95001	1187.28613	-1189.11560	145.35220	1061.20239	-998.75214	-381.69397	1060.88623	-985.59210	7.75967	920.88257	-1063.92749	-263.43628	944.88904	-1058.11304				53.21806	481.94037	-1126.76367	-307.91971	478.66104	-1104.79700				-276.09775	76.37345	-1208.40564	
111	1.100	-233.57094	1601.10876	-989.23987																-123.65405	1317.93726	-1069.99500							-430.46994	1187.13062	-1189.09485	145.79878	1061.07910	-998.56091	-381.00604	1060.81592	-985.43384	7.76852	920.87494	-1063.92249	-263.15637	945.16443	-1058.82629				53.22789	481.95499	-1126.76355	-307.90796	478.66663	-1104.79565				-275.89563	76.65567	-1208.12683	
